<svg aria-hidden="true" style="position: absolute; width: 0; height: 0; overflow: hidden;"
xmlns="http://www.w3.org/2000/svg" xmlns:xlink="http://www.w3.org/1999/xlink">
<defs>
	
	<symbol id="logo" viewBox="0 0 42 17" >
    <path id="Vector 7" d="M0 0L0 11L42 11L42 0L29.15 0C28.2 0 27.25 0.17 26.36 0.52C25.82 0.73 25.33 1.05 24.91 1.45L24.37 1.98C24 2.35 23.66 2.75 23.37 3.18C22.51 4.44 21.79 5.78 21.21 7.19L19.72 3.98C19.28 3.03 18.6 2.21 17.76 1.59C16.34 0.55 14.64 0 12.89 0L0 0Z" fill="#F9F9F9" fill-opacity="1.000000" fill-rule="evenodd"/>
	<rect id="Rectangle 30" y="13.000000" width="42.000000" height="4.000000" fill="#F9F9F9" fill-opacity="1.000000"/>
    </symbol>
    <symbol id="eye" viewBox="0 0 18 18">
    
    <g clip-path="url(#clip18802_111)">
		<path id="Vector" d="M9 3C14.25 3 17.25 9 17.25 9C17.25 9 14.25 15 9 15C3.75 15 0.75 9 0.75 9C0.75 9 3.75 3 9 3Z" stroke="#F9F9F9" stroke-opacity="1.000000" stroke-width="1.300000" stroke-linejoin="round" fill="none"/>
		<path id="Vector" d="M9 11.25C7.75 11.25 6.75 10.24 6.75 9C6.75 7.75 7.75 6.75 9 6.75C10.24 6.75 11.25 7.75 11.25 9C11.25 10.24 10.24 11.25 9 11.25Z" stroke="#F9F9F9"  stroke-opacity="1.000000" stroke-width="1.300000" stroke-linejoin="round" fill="none"/>
	</g>
    </symbol>
	<symbol id="eyeOff" viewBox="0 0 18 18">
	<g clip-path="url(#clip18802_132)">
		<path id="Vector" d="M13.45 13.45C12.17 14.43 10.61 14.97 9 15C3.75 15 0.75 9 0.75 9C1.68 7.26 2.97 5.74 4.54 4.54M7.42 3.18C7.94 3.05 8.46 2.99 9 3C14.25 3 17.25 9 17.25 9C16.79 9.85 16.25 10.65 15.62 11.39M10.59 10.59C10.38 10.81 10.13 10.98 9.85 11.11C9.58 11.23 9.28 11.3 8.98 11.3C8.68 11.31 8.38 11.25 8.1 11.14C7.82 11.02 7.56 10.86 7.35 10.64C7.13 10.43 6.97 10.17 6.85 9.89C6.74 9.61 6.68 9.31 6.69 9.01C6.69 8.71 6.76 8.41 6.88 8.14C7.01 7.86 7.18 7.61 7.4 7.41" stroke="#F9F9F9" stroke-opacity="1.000000" stroke-width="1.300000" stroke-linejoin="round" fill="none"/>
		<path id="Vector" d="M0.75 0.75L17.25 17.25" stroke="#F9F9F9" stroke-opacity="1.000000" stroke-width="1.300000" stroke-linejoin="round" stroke-linecap="round" fill="none"/>
	</g>
    </symbol>
    <symbol id="erorr" viewBox="0 0 295 44">
	<rect id="Password" rx="11.500000" width="294.000000" height="43.000000" transform="translate(0.500000 0.500000)" fill="#262626" fill-opacity="1.000000"/>
	<path id="Password:" d="M16.48 26L15.16 26L15.16 17.27L18.27 17.27C20.3 17.27 21.29 18.49 21.29 20.09C21.29 21.7 20.29 22.93 18.27 22.93L16.48 22.93L16.48 26ZM66.32 24.98C66.09 25.39 65.62 26.12 64.43 26.12C62.84 26.12 61.69 24.85 61.69 22.73C61.69 20.61 62.86 19.37 64.44 19.37C65.66 19.37 66.09 20.11 66.32 20.51L66.4 20.51L66.4 17.27L67.67 17.27L67.67 26L66.43 26L66.43 24.98L66.32 24.98ZM16.48 18.4L16.48 21.81L18.15 21.81C19.43 21.81 19.97 21.08 19.97 20.09C19.97 19.1 19.43 18.4 18.13 18.4L16.48 18.4ZM59.12 26L57.85 26L57.85 19.45L59.08 19.45L59.08 20.49L59.15 20.49C59.38 19.79 60.04 19.35 60.81 19.35C60.97 19.35 61.22 19.37 61.35 19.38L61.35 20.6C61.25 20.57 60.95 20.52 60.69 20.52C59.78 20.52 59.12 21.14 59.12 22L59.12 26ZM26.27 25.1C26.03 25.59 25.42 26.14 24.34 26.14C23.09 26.14 22.12 25.43 22.12 24.15C22.12 22.66 23.39 22.34 24.63 22.19C25.81 22.05 26.29 22.06 26.29 21.6L26.29 21.57C26.29 20.83 25.87 20.4 25.04 20.4C24.19 20.4 23.71 20.84 23.52 21.31L22.32 21.04C22.75 19.84 23.84 19.37 25.02 19.37C26.06 19.37 27.56 19.74 27.56 21.65L27.56 26L26.32 26L26.32 25.1L26.27 25.1ZM31.45 19.37C32.86 19.37 33.66 20.03 33.93 21.05L32.77 21.25C32.62 20.81 32.25 20.37 31.46 20.37C30.74 20.37 30.19 20.73 30.2 21.23C30.19 21.68 30.5 21.92 31.22 22.09L32.26 22.33C33.46 22.61 34.05 23.18 34.05 24.1C34.05 25.29 32.96 26.13 31.38 26.13C29.91 26.13 28.94 25.48 28.73 24.32L29.96 24.13C30.12 24.77 30.6 25.1 31.37 25.1C32.2 25.1 32.75 24.7 32.75 24.2C32.75 23.79 32.45 23.51 31.82 23.37L30.71 23.12C29.49 22.85 28.92 22.23 28.92 21.3C28.92 20.14 29.97 19.37 31.45 19.37ZM37.64 19.37C39.05 19.37 39.85 20.03 40.12 21.05L38.96 21.25C38.81 20.81 38.44 20.37 37.65 20.37C36.93 20.37 36.38 20.73 36.39 21.23C36.38 21.68 36.7 21.92 37.41 22.09L38.45 22.33C39.65 22.61 40.24 23.18 40.24 24.1C40.24 25.29 39.15 26.13 37.57 26.13C36.1 26.13 35.13 25.48 34.92 24.32L36.15 24.13C36.31 24.77 36.79 25.1 37.56 25.1C38.39 25.1 38.94 24.7 38.94 24.2C38.94 23.79 38.64 23.51 38.01 23.37L36.9 23.12C35.68 22.85 35.11 22.23 35.11 21.3C35.11 20.14 36.16 19.37 37.64 19.37ZM56.67 22.75C56.67 24.78 55.46 26.13 53.62 26.13C51.77 26.13 50.57 24.78 50.57 22.75C50.57 20.72 51.77 19.37 53.62 19.37C55.46 19.37 56.67 20.72 56.67 22.75ZM44.12 26L42.82 26L40.89 19.45L42.21 19.45L43.49 24.26L43.56 24.26L44.85 19.45L46.16 19.45L47.44 24.23L47.5 24.23L48.78 19.45L50.1 19.45L48.17 26L46.87 26L45.54 21.27L45.45 21.27L44.12 26ZM70.94 20.46C70.94 20.93 70.55 21.31 70.09 21.31C69.62 21.31 69.24 20.93 69.24 20.46C69.24 20 69.62 19.61 70.09 19.61C70.55 19.61 70.94 20 70.94 20.46ZM51.85 22.75C51.85 24.01 52.41 25.06 53.62 25.06C54.82 25.06 55.38 24.01 55.38 22.75C55.38 21.5 54.82 20.43 53.62 20.43C52.41 20.43 51.85 21.5 51.85 22.75ZM62.98 22.72C62.98 24.04 63.57 25.04 64.71 25.04C65.81 25.04 66.42 24.1 66.42 22.72C66.42 21.35 65.82 20.45 64.71 20.45C63.56 20.45 62.98 21.42 62.98 22.72ZM23.37 24.16C23.37 24.79 23.89 25.12 24.61 25.12C25.67 25.12 26.29 24.41 26.29 23.63L26.29 22.79C26.11 22.97 25.13 23.09 24.71 23.14C23.98 23.24 23.37 23.48 23.37 24.16ZM70.94 25.22C70.94 25.7 70.55 26.08 70.09 26.08C69.62 26.08 69.24 25.7 69.24 25.22C69.24 24.76 69.62 24.37 70.09 24.37C70.55 24.37 70.94 24.76 70.94 25.22Z" fill="#686868" fill-opacity="1.000000" fill-rule="evenodd"/>
	<path id="************" d="M81.59 22.18L80.66 22.18L80.74 20.38L79.23 21.35L78.76 20.55L80.37 19.72L78.76 18.9L79.23 18.09L80.74 19.07L80.66 17.27L81.59 17.27L81.51 19.07L83.02 18.09L83.49 18.9L81.88 19.72L83.49 20.55L83.02 21.35L81.51 20.38L81.59 22.18ZM87.61 22.18L86.68 22.18L86.76 20.38L85.25 21.35L84.78 20.55L86.39 19.72L84.78 18.9L85.25 18.09L86.76 19.07L86.68 17.27L87.61 17.27L87.53 19.07L89.04 18.09L89.51 18.9L87.9 19.72L89.51 20.55L89.04 21.35L87.53 20.38L87.61 22.18ZM93.63 22.18L92.7 22.18L92.78 20.38L91.27 21.35L90.8 20.55L92.41 19.72L90.8 18.9L91.27 18.09L92.78 19.07L92.7 17.27L93.63 17.27L93.55 19.07L95.06 18.09L95.53 18.9L93.92 19.72L95.53 20.55L95.06 21.35L93.55 20.38L93.63 22.18ZM99.65 22.18L98.72 22.18L98.8 20.38L97.29 21.35L96.82 20.55L98.43 19.72L96.82 18.9L97.29 18.09L98.8 19.07L98.72 17.27L99.65 17.27L99.57 19.07L101.08 18.09L101.55 18.9L99.94 19.72L101.55 20.55L101.08 21.35L99.57 20.38L99.65 22.18ZM105.67 22.18L104.74 22.18L104.82 20.38L103.31 21.35L102.84 20.55L104.45 19.72L102.84 18.9L103.31 18.09L104.82 19.07L104.74 17.27L105.67 17.27L105.59 19.07L107.1 18.09L107.57 18.9L105.96 19.72L107.57 20.55L107.1 21.35L105.59 20.38L105.67 22.18ZM111.69 22.18L110.76 22.18L110.84 20.38L109.33 21.35L108.86 20.55L110.47 19.72L108.86 18.9L109.33 18.09L110.84 19.07L110.76 17.27L111.69 17.27L111.61 19.07L113.12 18.09L113.59 18.9L111.98 19.72L113.59 20.55L113.12 21.35L111.61 20.38L111.69 22.18ZM117.71 22.18L116.78 22.18L116.86 20.38L115.35 21.35L114.88 20.55L116.49 19.72L114.88 18.9L115.35 18.09L116.86 19.07L116.78 17.27L117.71 17.27L117.63 19.07L119.14 18.09L119.61 18.9L118 19.72L119.61 20.55L119.14 21.35L117.63 20.38L117.71 22.18ZM123.73 22.18L122.8 22.18L122.88 20.38L121.37 21.35L120.9 20.55L122.51 19.72L120.9 18.9L121.37 18.09L122.88 19.07L122.8 17.27L123.73 17.27L123.65 19.07L125.16 18.09L125.63 18.9L124.02 19.72L125.63 20.55L125.16 21.35L123.65 20.38L123.73 22.18ZM129.75 22.18L128.82 22.18L128.9 20.38L127.39 21.35L126.92 20.55L128.53 19.72L126.92 18.9L127.39 18.09L128.9 19.07L128.82 17.27L129.75 17.27L129.67 19.07L131.18 18.09L131.65 18.9L130.04 19.72L131.65 20.55L131.18 21.35L129.67 20.38L129.75 22.18ZM135.77 22.18L134.84 22.18L134.92 20.38L133.41 21.35L132.94 20.55L134.55 19.72L132.94 18.9L133.41 18.09L134.92 19.07L134.84 17.27L135.77 17.27L135.69 19.07L137.2 18.09L137.67 18.9L136.06 19.72L137.67 20.55L137.2 21.35L135.69 20.38L135.77 22.18ZM141.79 22.18L140.86 22.18L140.94 20.38L139.42 21.35L138.96 20.55L140.57 19.72L138.96 18.9L139.42 18.09L140.94 19.07L140.86 17.27L141.79 17.27L141.71 19.07L143.22 18.09L143.69 18.9L142.08 19.72L143.69 20.55L143.22 21.35L141.71 20.38L141.79 22.18ZM147.81 22.18L146.88 22.18L146.96 20.38L145.45 21.35L144.98 20.55L146.59 19.72L144.98 18.9L145.45 18.09L146.96 19.07L146.88 17.27L147.81 17.27L147.73 19.07L149.24 18.09L149.71 18.9L148.1 19.72L149.71 20.55L149.24 21.35L147.73 20.38L147.81 22.18Z" fill="#F9F9F9" fill-opacity="1.000000" fill-rule="evenodd"/>
	<rect id="pajamas:error" width="18.000000" height="18.000000" transform="translate(261.000000 13.000000)" fill="#FFFFFF" fill-opacity="0"/>
	<g clip-path="url(#clip18803_192)">
		<path id="Vector" d="M270 29.31C271.93 29.31 273.79 28.54 275.17 27.17C276.54 25.79 277.31 23.93 277.31 22C277.31 20.06 276.54 18.2 275.17 16.82C273.79 15.45 271.93 14.68 270 14.68C268.06 14.68 266.2 15.45 264.82 16.82C263.45 18.2 262.68 20.06 262.68 22C262.68 23.93 263.45 25.79 264.82 27.17C266.2 28.54 268.06 29.31 270 29.31ZM270 31C272.38 31 274.67 30.05 276.36 28.36C278.05 26.67 279 24.38 279 22C279 19.61 278.05 17.32 276.36 15.63C274.67 13.94 272.38 13 270 13C267.61 13 265.32 13.94 263.63 15.63C261.94 17.32 261 19.61 261 22C261 24.38 261.94 26.67 263.63 28.36C265.32 30.05 267.61 31 270 31ZM271.12 25.37C271.12 25.67 271 25.95 270.79 26.17C270.58 26.38 270.29 26.5 270 26.5C269.7 26.5 269.41 26.38 269.2 26.17C268.99 25.95 268.87 25.67 268.87 25.37C268.87 25.07 268.99 24.79 269.2 24.57C269.41 24.36 269.7 24.25 270 24.25C270.29 24.25 270.58 24.36 270.79 24.57C271 24.79 271.12 25.07 271.12 25.37ZM270.84 18.34C270.84 18.12 270.75 17.9 270.59 17.74C270.43 17.58 270.22 17.5 270 17.5C269.77 17.5 269.56 17.58 269.4 17.74C269.24 17.9 269.15 18.12 269.15 18.34L269.15 22.28C269.15 22.5 269.24 22.71 269.4 22.87C269.56 23.03 269.77 23.12 270 23.12C270.22 23.12 270.43 23.03 270.59 22.87C270.75 22.71 270.84 22.5 270.84 22.28L270.84 18.34Z" fill="#E90516" fill-opacity="1.000000" fill-rule="evenodd"/>
	</g>
	<rect id="Password" rx="11.500000" width="294.000000" height="43.000000" transform="translate(0.500000 0.500000)" stroke="#E90516" stroke-opacity="1.000000" stroke-width="1.000000"/>

    </symbol>
    <symbol id="correct" viewBox="0 0 295 44">
	<rect id="Password" rx="11.500000" width="294.000000" height="43.000000" transform="translate(0.500000 0.500000)" fill="#262626" fill-opacity="1.000000"/>
	<path id="Password:" d="M16.48 26L15.16 26L15.16 17.27L18.27 17.27C20.3 17.27 21.29 18.49 21.29 20.09C21.29 21.7 20.29 22.93 18.27 22.93L16.48 22.93L16.48 26ZM66.32 24.98C66.09 25.39 65.62 26.12 64.43 26.12C62.84 26.12 61.69 24.85 61.69 22.73C61.69 20.61 62.86 19.37 64.44 19.37C65.66 19.37 66.09 20.11 66.32 20.51L66.4 20.51L66.4 17.27L67.67 17.27L67.67 26L66.43 26L66.43 24.98L66.32 24.98ZM16.48 18.4L16.48 21.81L18.15 21.81C19.43 21.81 19.97 21.08 19.97 20.09C19.97 19.1 19.43 18.4 18.13 18.4L16.48 18.4ZM59.12 26L57.85 26L57.85 19.45L59.08 19.45L59.08 20.49L59.15 20.49C59.38 19.79 60.04 19.35 60.81 19.35C60.97 19.35 61.22 19.37 61.35 19.38L61.35 20.6C61.25 20.57 60.95 20.52 60.69 20.52C59.78 20.52 59.12 21.14 59.12 22L59.12 26ZM26.27 25.1C26.03 25.59 25.42 26.14 24.34 26.14C23.09 26.14 22.12 25.43 22.12 24.15C22.12 22.66 23.39 22.34 24.63 22.19C25.81 22.05 26.29 22.06 26.29 21.6L26.29 21.57C26.29 20.83 25.87 20.4 25.04 20.4C24.19 20.4 23.71 20.84 23.52 21.31L22.32 21.04C22.75 19.84 23.84 19.37 25.02 19.37C26.06 19.37 27.56 19.74 27.56 21.65L27.56 26L26.32 26L26.32 25.1L26.27 25.1ZM31.45 19.37C32.86 19.37 33.66 20.03 33.93 21.05L32.77 21.25C32.62 20.81 32.25 20.37 31.46 20.37C30.74 20.37 30.19 20.73 30.2 21.23C30.19 21.68 30.5 21.92 31.22 22.09L32.26 22.33C33.46 22.61 34.05 23.18 34.05 24.1C34.05 25.29 32.96 26.13 31.38 26.13C29.91 26.13 28.94 25.48 28.73 24.32L29.96 24.13C30.12 24.77 30.6 25.1 31.37 25.1C32.2 25.1 32.75 24.7 32.75 24.2C32.75 23.79 32.45 23.51 31.82 23.37L30.71 23.12C29.49 22.85 28.92 22.23 28.92 21.3C28.92 20.14 29.97 19.37 31.45 19.37ZM37.64 19.37C39.05 19.37 39.85 20.03 40.12 21.05L38.96 21.25C38.81 20.81 38.44 20.37 37.65 20.37C36.93 20.37 36.38 20.73 36.39 21.23C36.38 21.68 36.7 21.92 37.41 22.09L38.45 22.33C39.65 22.61 40.24 23.18 40.24 24.1C40.24 25.29 39.15 26.13 37.57 26.13C36.1 26.13 35.13 25.48 34.92 24.32L36.15 24.13C36.31 24.77 36.79 25.1 37.56 25.1C38.39 25.1 38.94 24.7 38.94 24.2C38.94 23.79 38.64 23.51 38.01 23.37L36.9 23.12C35.68 22.85 35.11 22.23 35.11 21.3C35.11 20.14 36.16 19.37 37.64 19.37ZM56.67 22.75C56.67 24.78 55.46 26.13 53.62 26.13C51.77 26.13 50.57 24.78 50.57 22.75C50.57 20.72 51.77 19.37 53.62 19.37C55.46 19.37 56.67 20.72 56.67 22.75ZM44.12 26L42.82 26L40.89 19.45L42.21 19.45L43.49 24.26L43.56 24.26L44.85 19.45L46.16 19.45L47.44 24.23L47.5 24.23L48.78 19.45L50.1 19.45L48.17 26L46.87 26L45.54 21.27L45.45 21.27L44.12 26ZM70.94 20.46C70.94 20.93 70.55 21.31 70.09 21.31C69.62 21.31 69.24 20.93 69.24 20.46C69.24 20 69.62 19.61 70.09 19.61C70.55 19.61 70.94 20 70.94 20.46ZM51.85 22.75C51.85 24.01 52.41 25.06 53.62 25.06C54.82 25.06 55.38 24.01 55.38 22.75C55.38 21.5 54.82 20.43 53.62 20.43C52.41 20.43 51.85 21.5 51.85 22.75ZM62.98 22.72C62.98 24.04 63.57 25.04 64.71 25.04C65.81 25.04 66.42 24.1 66.42 22.72C66.42 21.35 65.82 20.45 64.71 20.45C63.56 20.45 62.98 21.42 62.98 22.72ZM23.37 24.16C23.37 24.79 23.89 25.12 24.61 25.12C25.67 25.12 26.29 24.41 26.29 23.63L26.29 22.79C26.11 22.97 25.13 23.09 24.71 23.14C23.98 23.24 23.37 23.48 23.37 24.16ZM70.94 25.22C70.94 25.7 70.55 26.08 70.09 26.08C69.62 26.08 69.24 25.7 69.24 25.22C69.24 24.76 69.62 24.37 70.09 24.37C70.55 24.37 70.94 24.76 70.94 25.22Z" fill="#686868" fill-opacity="1.000000" fill-rule="evenodd"/>
	<path id="************" d="M81.59 22.18L80.66 22.18L80.74 20.38L79.23 21.35L78.76 20.55L80.37 19.72L78.76 18.9L79.23 18.09L80.74 19.07L80.66 17.27L81.59 17.27L81.51 19.07L83.02 18.09L83.49 18.9L81.88 19.72L83.49 20.55L83.02 21.35L81.51 20.38L81.59 22.18ZM87.61 22.18L86.68 22.18L86.76 20.38L85.25 21.35L84.78 20.55L86.39 19.72L84.78 18.9L85.25 18.09L86.76 19.07L86.68 17.27L87.61 17.27L87.53 19.07L89.04 18.09L89.51 18.9L87.9 19.72L89.51 20.55L89.04 21.35L87.53 20.38L87.61 22.18ZM93.63 22.18L92.7 22.18L92.78 20.38L91.27 21.35L90.8 20.55L92.41 19.72L90.8 18.9L91.27 18.09L92.78 19.07L92.7 17.27L93.63 17.27L93.55 19.07L95.06 18.09L95.53 18.9L93.92 19.72L95.53 20.55L95.06 21.35L93.55 20.38L93.63 22.18ZM99.65 22.18L98.72 22.18L98.8 20.38L97.29 21.35L96.82 20.55L98.43 19.72L96.82 18.9L97.29 18.09L98.8 19.07L98.72 17.27L99.65 17.27L99.57 19.07L101.08 18.09L101.55 18.9L99.94 19.72L101.55 20.55L101.08 21.35L99.57 20.38L99.65 22.18ZM105.67 22.18L104.74 22.18L104.82 20.38L103.31 21.35L102.84 20.55L104.45 19.72L102.84 18.9L103.31 18.09L104.82 19.07L104.74 17.27L105.67 17.27L105.59 19.07L107.1 18.09L107.57 18.9L105.96 19.72L107.57 20.55L107.1 21.35L105.59 20.38L105.67 22.18ZM111.69 22.18L110.76 22.18L110.84 20.38L109.33 21.35L108.86 20.55L110.47 19.72L108.86 18.9L109.33 18.09L110.84 19.07L110.76 17.27L111.69 17.27L111.61 19.07L113.12 18.09L113.59 18.9L111.98 19.72L113.59 20.55L113.12 21.35L111.61 20.38L111.69 22.18ZM117.71 22.18L116.78 22.18L116.86 20.38L115.35 21.35L114.88 20.55L116.49 19.72L114.88 18.9L115.35 18.09L116.86 19.07L116.78 17.27L117.71 17.27L117.63 19.07L119.14 18.09L119.61 18.9L118 19.72L119.61 20.55L119.14 21.35L117.63 20.38L117.71 22.18ZM123.73 22.18L122.8 22.18L122.88 20.38L121.37 21.35L120.9 20.55L122.51 19.72L120.9 18.9L121.37 18.09L122.88 19.07L122.8 17.27L123.73 17.27L123.65 19.07L125.16 18.09L125.63 18.9L124.02 19.72L125.63 20.55L125.16 21.35L123.65 20.38L123.73 22.18ZM129.75 22.18L128.82 22.18L128.9 20.38L127.39 21.35L126.92 20.55L128.53 19.72L126.92 18.9L127.39 18.09L128.9 19.07L128.82 17.27L129.75 17.27L129.67 19.07L131.18 18.09L131.65 18.9L130.04 19.72L131.65 20.55L131.18 21.35L129.67 20.38L129.75 22.18ZM135.77 22.18L134.84 22.18L134.92 20.38L133.41 21.35L132.94 20.55L134.55 19.72L132.94 18.9L133.41 18.09L134.92 19.07L134.84 17.27L135.77 17.27L135.69 19.07L137.2 18.09L137.67 18.9L136.06 19.72L137.67 20.55L137.2 21.35L135.69 20.38L135.77 22.18ZM141.79 22.18L140.86 22.18L140.94 20.38L139.42 21.35L138.96 20.55L140.57 19.72L138.96 18.9L139.42 18.09L140.94 19.07L140.86 17.27L141.79 17.27L141.71 19.07L143.22 18.09L143.69 18.9L142.08 19.72L143.69 20.55L143.22 21.35L141.71 20.38L141.79 22.18ZM147.81 22.18L146.88 22.18L146.96 20.38L145.45 21.35L144.98 20.55L146.59 19.72L144.98 18.9L145.45 18.09L146.96 19.07L146.88 17.27L147.81 17.27L147.73 19.07L149.24 18.09L149.71 18.9L148.1 19.72L149.71 20.55L149.24 21.35L147.73 20.38L147.81 22.18Z" fill="#F9F9F9" fill-opacity="1.000000" fill-rule="evenodd"/>
	<rect id="gg:check-o" width="18.000000" height="18.000000" transform="translate(261.000000 13.000000)" fill="#FFFFFF" fill-opacity="0"/>
	<g clip-path="url(#clip18803_200)">
		<path id="Vector" d="M269.43 25.24L266.4 21.81L267.41 20.68L269.43 22.95L273.48 18.4L274.5 19.54L269.43 25.23L269.43 25.24Z" fill="#30B94D" fill-opacity="1.000000" fill-rule="nonzero"/>
		<path id="Vector" d="M261 22C261 17.02 265.03 13 270 13C274.97 13 279 17.02 279 22C279 26.97 274.97 31 270 31C265.03 31 261 26.97 261 22ZM270 29.36C269.03 29.36 268.07 29.17 267.18 28.8C266.28 28.43 265.47 27.89 264.79 27.2C264.1 26.52 263.56 25.71 263.19 24.81C262.82 23.92 262.63 22.96 262.63 22C262.63 21.03 262.82 20.07 263.19 19.18C263.56 18.28 264.1 17.47 264.79 16.79C265.47 16.1 266.28 15.56 267.18 15.19C268.07 14.82 269.03 14.63 270 14.63C271.95 14.63 273.82 15.41 275.2 16.79C276.58 18.17 277.36 20.04 277.36 22C277.36 23.95 276.58 25.82 275.2 27.2C273.82 28.58 271.95 29.36 270 29.36Z" fill="#30B94D" fill-opacity="1.000000" fill-rule="evenodd"/>
	</g>
	<rect id="Password" rx="11.500000" width="294.000000" height="43.000000" transform="translate(0.500000 0.500000)" stroke="#30B94D" stroke-opacity="1.000000" stroke-width="1.000000"/>


    </symbol>
    <defs/>
</svg>





	
	
	
	

